<svg width="538" height="367" viewBox="0 0 538 367" fill="none" xmlns="http://www.w3.org/2000/svg">
<rect width="538" height="367" fill="white"/>
<rect x="193" y="68" width="152" height="152" fill="#FFFEFE" stroke="black" stroke-width="2"/>
<path d="M246.4 138.5C249.6 138.5 252.5 139.467 255.1 141.4C257.7 143.333 259.733 145.933 261.2 149.2C262.733 152.4 263.5 156.033 263.5 160.1V164.7C263.5 167.567 264.167 169.9 265.5 171.7C266.833 173.433 268.6 174.3 270.8 174.3H271.9V178H270.8C264.333 178 259.567 176.433 256.5 173.3C253.5 170.167 252 165.233 252 158.5V152.5C252 149.633 251.233 147.267 249.7 145.4C248.167 143.467 246.233 142.5 243.9 142.5H241.2V138.5L254.1 110.3C254.567 109.367 254.333 108.533 253.4 107.8C252.467 107.067 251.133 106.7 249.4 106.7V103H266.1V106.7C264.1 106.7 262.567 107.033 261.5 107.7C260.433 108.3 259.533 109.433 258.8 111.1L246.4 138.5ZM220 174.3C222.133 174.3 223.667 173.967 224.6 173.3C225.533 172.633 226 171.533 226 170V111C226 109.467 225.533 108.367 224.6 107.7C223.667 107.033 222.133 106.7 220 106.7V103H243.2V106.7C241.067 106.7 239.533 107.033 238.6 107.7C237.667 108.367 237.2 109.467 237.2 111V170C237.2 171.533 237.667 172.633 238.6 173.3C239.533 173.967 241.067 174.3 243.2 174.3V178H220V174.3ZM272.232 174.3C274.365 174.3 275.899 173.967 276.832 173.3C277.765 172.633 278.232 171.533 278.232 170V111C278.232 109.467 277.765 108.367 276.832 107.7C275.899 107.033 274.365 106.7 272.232 106.7V103H296.032C308.365 103 314.532 110.133 314.532 124.4V156.6C314.532 170.867 308.365 178 296.032 178H272.232V174.3ZM296.032 107H289.432V174H296.032C298.299 174 300.099 173.133 301.432 171.4C302.832 169.6 303.532 167.267 303.532 164.4V116.6C303.532 113.667 302.832 111.333 301.432 109.6C300.099 107.867 298.299 107 296.032 107Z" fill="black"/>
<line x1="74.9963" y1="298.5" x2="227.006" y2="298.5" stroke="black"/>
<line x1="307.972" y1="298.5" x2="462.01" y2="298.5" stroke="black"/>
<path d="M255.723 308H253.367L244.419 294.304V308H242.063V290.227H244.419L253.391 303.984V290.227H255.723V308ZM273.008 305.668C272.406 306.531 271.563 307.178 270.481 307.609C269.407 308.033 268.153 308.244 266.721 308.244C265.273 308.244 263.987 307.906 262.864 307.231C261.741 306.547 260.87 305.579 260.251 304.326C259.641 303.072 259.328 301.62 259.312 299.968V298.417C259.312 295.74 259.934 293.665 261.179 292.192C262.432 290.719 264.19 289.982 266.453 289.982C268.308 289.982 269.801 290.458 270.933 291.411C272.064 292.355 272.756 293.697 273.008 295.439H270.664C270.225 293.087 268.825 291.911 266.465 291.911C264.894 291.911 263.702 292.465 262.888 293.571C262.083 294.67 261.676 296.265 261.667 298.356V299.809C261.667 301.803 262.123 303.39 263.035 304.57C263.946 305.742 265.179 306.328 266.733 306.328C267.612 306.328 268.381 306.23 269.041 306.035C269.7 305.839 270.245 305.51 270.676 305.046V301.054H266.562V299.15H273.008V305.668ZM289.438 290.227V302.312C289.43 303.988 288.901 305.359 287.852 306.425C286.81 307.491 285.394 308.09 283.604 308.22L282.981 308.244C281.036 308.244 279.486 307.719 278.33 306.669C277.174 305.62 276.589 304.175 276.572 302.336V290.227H278.892V302.263C278.892 303.549 279.246 304.549 279.954 305.266C280.662 305.974 281.671 306.328 282.981 306.328C284.307 306.328 285.321 305.974 286.021 305.266C286.729 304.558 287.083 303.561 287.083 302.275V290.227H289.438ZM295.31 302.983H293.271L293.113 290.227H295.481L295.31 302.983ZM293.027 306.865C293.027 306.499 293.137 306.193 293.357 305.949C293.585 305.697 293.918 305.571 294.358 305.571C294.797 305.571 295.131 305.697 295.359 305.949C295.587 306.193 295.701 306.499 295.701 306.865C295.701 307.231 295.587 307.536 295.359 307.78C295.131 308.016 294.797 308.134 294.358 308.134C293.918 308.134 293.585 308.016 293.357 307.78C293.137 307.536 293.027 307.231 293.027 306.865Z" fill="black"/>
<path d="M110.24 251.84L104.52 257.64V265H101.56V237H104.52V253.92L120.96 237H124.36L112.24 249.68L125.2 265H121.68L110.24 251.84ZM147.615 243.96V265H144.895V261.16C144.149 262.44 143.122 263.44 141.815 264.16C140.509 264.853 139.015 265.2 137.335 265.2C134.589 265.2 132.415 264.44 130.815 262.92C129.242 261.373 128.455 259.12 128.455 256.16V243.96H131.295V255.88C131.295 258.093 131.842 259.773 132.935 260.92C134.029 262.067 135.589 262.64 137.615 262.64C139.829 262.64 141.575 261.973 142.855 260.64C144.135 259.28 144.775 257.4 144.775 255V243.96H147.615ZM170.409 262.64V265H153.289V263.12L166.529 246.36H153.529V243.96H170.169V245.84L156.929 262.64H170.409ZM202.239 243.8C204.879 243.8 206.946 244.56 208.439 246.08C209.959 247.6 210.719 249.84 210.719 252.8V265H207.879V253.08C207.879 250.893 207.346 249.227 206.279 248.08C205.239 246.933 203.759 246.36 201.839 246.36C199.652 246.36 197.932 247.04 196.679 248.4C195.426 249.733 194.799 251.587 194.799 253.96V265H191.959V253.08C191.959 250.893 191.426 249.227 190.359 248.08C189.319 246.933 187.826 246.36 185.879 246.36C183.719 246.36 181.999 247.04 180.719 248.4C179.466 249.733 178.839 251.587 178.839 253.96V265H175.999V243.96H178.719V247.8C179.466 246.52 180.506 245.533 181.839 244.84C183.172 244.147 184.706 243.8 186.439 243.8C188.199 243.8 189.719 244.173 190.999 244.92C192.306 245.667 193.279 246.773 193.919 248.24C194.692 246.853 195.799 245.773 197.239 245C198.706 244.2 200.372 243.8 202.239 243.8ZM236.819 255.36H219.219C219.379 257.547 220.219 259.32 221.739 260.68C223.259 262.013 225.179 262.68 227.499 262.68C228.806 262.68 230.006 262.453 231.099 262C232.192 261.52 233.139 260.827 233.939 259.92L235.539 261.76C234.606 262.88 233.432 263.733 232.019 264.32C230.632 264.907 229.099 265.2 227.419 265.2C225.259 265.2 223.339 264.747 221.659 263.84C220.006 262.907 218.712 261.627 217.779 260C216.846 258.373 216.379 256.533 216.379 254.48C216.379 252.427 216.819 250.587 217.699 248.96C218.606 247.333 219.832 246.067 221.379 245.16C222.952 244.253 224.712 243.8 226.659 243.8C228.606 243.8 230.352 244.253 231.899 245.16C233.446 246.067 234.659 247.333 235.539 248.96C236.419 250.56 236.859 252.4 236.859 254.48L236.819 255.36ZM226.659 246.24C224.632 246.24 222.926 246.893 221.539 248.2C220.179 249.48 219.406 251.16 219.219 253.24H234.139C233.952 251.16 233.166 249.48 231.779 248.2C230.419 246.893 228.712 246.24 226.659 246.24ZM253.36 243.8C256 243.8 258.093 244.573 259.64 246.12C261.213 247.64 262 249.867 262 252.8V265H259.16V253.08C259.16 250.893 258.613 249.227 257.52 248.08C256.426 246.933 254.866 246.36 252.84 246.36C250.573 246.36 248.773 247.04 247.44 248.4C246.133 249.733 245.48 251.587 245.48 253.96V265H242.64V243.96H245.36V247.84C246.133 246.56 247.2 245.573 248.56 244.88C249.946 244.16 251.546 243.8 253.36 243.8ZM277.51 254.44L272.55 259V265H269.71V235.32H272.55V255.44L285.11 243.96H288.63L279.63 252.56L289.47 265H285.99L277.51 254.44ZM301.474 265.2C299.447 265.2 297.621 264.747 295.994 263.84C294.367 262.907 293.087 261.627 292.154 260C291.221 258.373 290.754 256.533 290.754 254.48C290.754 252.427 291.221 250.587 292.154 248.96C293.087 247.333 294.367 246.067 295.994 245.16C297.621 244.253 299.447 243.8 301.474 243.8C303.501 243.8 305.327 244.253 306.954 245.16C308.581 246.067 309.847 247.333 310.754 248.96C311.687 250.587 312.154 252.427 312.154 254.48C312.154 256.533 311.687 258.373 310.754 260C309.847 261.627 308.581 262.907 306.954 263.84C305.327 264.747 303.501 265.2 301.474 265.2ZM301.474 262.68C302.967 262.68 304.301 262.347 305.474 261.68C306.674 260.987 307.607 260.013 308.274 258.76C308.941 257.507 309.274 256.08 309.274 254.48C309.274 252.88 308.941 251.453 308.274 250.2C307.607 248.947 306.674 247.987 305.474 247.32C304.301 246.627 302.967 246.28 301.474 246.28C299.981 246.28 298.634 246.627 297.434 247.32C296.261 247.987 295.327 248.947 294.634 250.2C293.967 251.453 293.634 252.88 293.634 254.48C293.634 256.08 293.967 257.507 294.634 258.76C295.327 260.013 296.261 260.987 297.434 261.68C298.634 262.347 299.981 262.68 301.474 262.68ZM329.021 237H340.421C343.381 237 345.994 237.6 348.261 238.8C350.528 239.973 352.288 241.627 353.541 243.76C354.794 245.867 355.421 248.28 355.421 251C355.421 253.72 354.794 256.147 353.541 258.28C352.288 260.387 350.528 262.04 348.261 263.24C345.994 264.413 343.381 265 340.421 265H329.021V237ZM340.261 262.44C342.714 262.44 344.861 261.96 346.701 261C348.541 260.013 349.968 258.667 350.981 256.96C351.994 255.227 352.501 253.24 352.501 251C352.501 248.76 351.994 246.787 350.981 245.08C349.968 243.347 348.541 242 346.701 241.04C344.861 240.053 342.714 239.56 340.261 239.56H331.981V262.44H340.261ZM368.828 243.8C371.574 243.8 373.681 244.493 375.148 245.88C376.614 247.24 377.348 249.267 377.348 251.96V265H374.628V261.72C373.988 262.813 373.041 263.667 371.788 264.28C370.561 264.893 369.094 265.2 367.388 265.2C365.041 265.2 363.174 264.64 361.788 263.52C360.401 262.4 359.708 260.92 359.708 259.08C359.708 257.293 360.348 255.853 361.628 254.76C362.934 253.667 365.001 253.12 367.828 253.12H374.508V251.84C374.508 250.027 374.001 248.653 372.988 247.72C371.974 246.76 370.494 246.28 368.548 246.28C367.214 246.28 365.934 246.507 364.708 246.96C363.481 247.387 362.428 247.987 361.548 248.76L360.268 246.64C361.334 245.733 362.614 245.04 364.108 244.56C365.601 244.053 367.174 243.8 368.828 243.8ZM367.828 262.96C369.428 262.96 370.801 262.6 371.948 261.88C373.094 261.133 373.948 260.067 374.508 258.68V255.24H367.908C364.308 255.24 362.508 256.493 362.508 259C362.508 260.227 362.974 261.2 363.908 261.92C364.841 262.613 366.148 262.96 367.828 262.96ZM402.351 243.96L392.991 265H390.071L380.751 243.96H383.711L391.591 261.88L399.551 243.96H402.351ZM406.351 243.96H409.191V265H406.351V243.96ZM407.791 239.36C407.204 239.36 406.711 239.16 406.311 238.76C405.911 238.36 405.711 237.88 405.711 237.32C405.711 236.787 405.911 236.32 406.311 235.92C406.711 235.52 407.204 235.32 407.791 235.32C408.377 235.32 408.871 235.52 409.271 235.92C409.671 236.293 409.871 236.747 409.871 237.28C409.871 237.867 409.671 238.36 409.271 238.76C408.871 239.16 408.377 239.36 407.791 239.36ZM436.293 235.32V265H433.573V260.84C432.719 262.253 431.586 263.333 430.173 264.08C428.786 264.827 427.213 265.2 425.453 265.2C423.479 265.2 421.693 264.747 420.093 263.84C418.493 262.933 417.239 261.667 416.333 260.04C415.426 258.413 414.973 256.56 414.973 254.48C414.973 252.4 415.426 250.547 416.333 248.92C417.239 247.293 418.493 246.04 420.093 245.16C421.693 244.253 423.479 243.8 425.453 243.8C427.159 243.8 428.693 244.16 430.053 244.88C431.439 245.573 432.573 246.6 433.453 247.96V235.32H436.293ZM425.693 262.68C427.159 262.68 428.479 262.347 429.653 261.68C430.853 260.987 431.786 260.013 432.453 258.76C433.146 257.507 433.493 256.08 433.493 254.48C433.493 252.88 433.146 251.453 432.453 250.2C431.786 248.947 430.853 247.987 429.653 247.32C428.479 246.627 427.159 246.28 425.693 246.28C424.199 246.28 422.853 246.627 421.653 247.32C420.479 247.987 419.546 248.947 418.853 250.2C418.186 251.453 417.853 252.88 417.853 254.48C417.853 256.08 418.186 257.507 418.853 258.76C419.546 260.013 420.479 260.987 421.653 261.68C422.853 262.347 424.199 262.68 425.693 262.68Z" fill="black"/>
</svg>
